# xmcd
#
# Track frame offsets:
#	150
#	17820
#	39715
#	68975
#	86998
#	106457
#	124681
#	141719
#	162487
#	186115
#	210209
#	232964
#	249883
#	271607
#	288618
#
# Disc length: 4083 seconds
#
# Revision: 1
# Processed by: cddbd v1.5.2PL0 Copyright (c) Steve Scherf et al.
# Submitted via: audiograbber 1.83.01
#
DISCID=da0ff10f
DTITLE=Chris Rea - Fool if you think it's over
DYEAR=1900
DGENRE=
TTITLE0=Josephine
TTITLE1=On the beach
TTITLE2=The road to hell (Part 1 and 2)
TTITLE3=Fool (if you think it's over)
TTITLE4=Stainsby girls
TTITLE5=Let's dance
TTITLE6=Someday my peace will come
TTITLE7=Dancing the Blues away
TTITLE8=Long is the time, hard is the road
TTITLE9=Baby don't cry
TTITLE10=Speed
TTITLE11=Born bad
TTITLE12=Sometimes
TTITLE13=Blues for Janice
TTITLE14=The shadow of a fool
EXTD=
EXTT0=
EXTT1=
EXTT2=
EXTT3=
EXTT4=
EXTT5=
EXTT6=
EXTT7=
EXTT8=
EXTT9=
EXTT10=
EXTT11=
EXTT12=
EXTT13=
EXTT14=
PLAYORDER=
